<!DOCTYPE svg PUBLIC '-//W3C//DTD SVG 1.0//EN' 'http://www.w3.org/TR/2001/REC-SVG-20010904/DTD/svg10.dtd'>
<svg fill-opacity=".1" xmlns:xlink="http://www.w3.org/1999/xlink" color-rendering="auto" color-interpolation="auto" stroke="black" text-rendering="auto" stroke-linecap="square" stroke-miterlimit="10" stroke-opacity="1" shape-rendering="auto" fill="black" stroke-dasharray="none" font-weight="normal" stroke-width="1" xmlns="http://www.w3.org/2000/svg" font-family="&apos;Dialog&apos;" font-style="normal" stroke-linejoin="miter" font-size="12" stroke-dashoffset="0" image-rendering="auto">
  <!--Unicode Character 'TIBETAN MARK INITIAL YIG MGO MDUN MA' (U+0F04)-->
  <defs id="genericDefs" />
  <g>
    <g>
      <path d="M69.1875 325.9688 Q62.4375 319.5 56.3906 314.0156 Q50.3438 308.5312 44.0156 303.4688 Q37.6875 298.4062 30.5156 293.625 Q23.3438 288.8438 14.0625 283.7812 Q6.1875 279.5625 1.8281 278.2969 Q-2.5312 277.0312 -2.5312 275.3438 Q-2.5312 272.25 2.8125 272.25 Q5.0625 272.25 10.8281 274.2188 Q16.5938 276.1875 23.625 279.1406 Q30.6562 282.0938 37.6875 285.6094 Q44.7188 289.125 49.2188 291.9375 Q65.8125 302.625 81.7031 316.5469 Q97.5938 330.4688 111.9375 342.7031 Q126.2812 354.9375 138.375 363.375 Q150.4688 371.8125 159.75 371.8125 Q168.75 371.8125 176.7656 369.4219 Q184.7812 367.0312 191.8125 362.9531 Q198.8438 358.875 204.8906 353.5312 Q210.9375 348.1875 216 342.2812 Q221.0625 336.375 224.4375 336.375 Q226.125 336.375 226.125 338.0625 Q226.125 339.4688 225.5625 341.4375 Q225 343.4062 222.75 346.5 Q217.6875 354.0938 209.6719 362.9531 Q201.6562 371.8125 192.0938 379.4062 Q182.5312 387 172.2656 392.0625 Q162 397.125 151.875 397.125 Q140.0625 397.125 128.8125 388.9688 Q117.5625 380.8125 107.1562 369.4219 Q96.75 358.0312 87.1875 345.9375 Q77.625 333.8438 69.1875 325.9688 ZM165.375 349.875 Q153.5625 349.875 142.1719 343.125 Q130.7812 336.375 120.0938 327.0938 Q109.4062 317.8125 99.2812 307.9688 Q89.1562 298.125 80.1562 291.9375 Q71.7188 286.3125 63.8438 281.6719 Q55.9688 277.0312 47.5312 273.0938 Q39.0938 269.1562 29.9531 265.6406 Q20.8125 262.125 10.125 258.4688 Q1.125 255.375 -2.8125 254.8125 Q-6.75 254.25 -6.75 252.2812 Q-6.75 250.0312 -5.0625 249.3281 Q-3.375 248.625 -1.125 248.625 Q3.9375 248.625 12.9375 250.7344 Q21.9375 252.8438 31.5 255.6562 Q41.0625 258.4688 49.3594 261.2812 Q57.6562 264.0938 61.5938 265.7812 Q73.9688 270.8438 88.3125 280.5469 Q102.6562 290.25 117.5625 300.0938 Q132.4688 309.9375 147.2344 317.25 Q162 324.5625 175.5 324.5625 Q184.2188 324.5625 191.5312 320.4844 Q198.8438 316.4062 204.3281 310.3594 Q209.8125 304.3125 212.9062 297.1406 Q216 289.9688 216 284.0625 Q216 280.4062 213.3281 277.7344 Q210.6562 275.0625 206.2969 273.375 Q201.9375 271.6875 196.1719 270.9844 Q190.4062 270.2812 184.5 270.2812 Q181.9688 270.2812 179.2969 271.125 Q176.625 271.9688 174.2344 273.375 Q171.8438 274.7812 170.2969 277.1719 Q168.75 279.5625 168.75 282.375 Q168.75 284.0625 170.5781 285.3281 Q172.4062 286.5938 174.7969 287.4375 Q177.1875 288.2812 179.7188 288.7031 Q182.25 289.125 183.9375 289.125 Q187.0312 289.125 189.1406 288.1406 Q191.25 287.1562 192.0938 287.1562 Q194.0625 287.1562 194.0625 289.125 Q194.0625 291.375 192.375 293.9062 Q190.6875 296.4375 189 299.25 Q186.4688 303.4688 182.3906 306.4219 Q178.3125 309.375 169.0312 309.375 Q162.5625 309.375 158.9062 304.4531 Q155.25 299.5312 155.25 291.375 Q155.25 282.9375 159.4688 274.6406 Q163.6875 266.3438 170.1562 259.7344 Q176.625 253.125 184.3594 249.1875 Q192.0938 245.25 198.8438 245.25 Q205.0312 245.25 210.6562 247.2188 Q216.2812 249.1875 220.5 252.8438 Q224.7188 256.5 227.1094 261.2812 Q229.5 266.0625 229.5 271.4062 Q229.5 285.75 223.875 299.6719 Q218.25 313.5938 209.1094 324.8438 Q199.9688 336.0938 188.5781 342.9844 Q177.1875 349.875 165.375 349.875 Z" stroke="none" />
    </g>
  </g>
</svg>
